<svg xmlns="http://www.w3.org/2000/svg" xmlns:xlink="http://www.w3.org/1999/xlink" version="1.1" width="256" height="256" viewBox="0 0 256 256" xml:space="preserve">

<defs>
</defs>
<g style="stroke: none; stroke-width: 0; stroke-dasharray: none; stroke-linecap: butt; stroke-linejoin: miter; stroke-miterlimit: 10; fill: none; fill-rule: nonzero; opacity: 1;" transform="translate(1.4065934065934016 1.4065934065934016) scale(2.81 2.81)" >
	<circle cx="45" cy="45" r="45" style="stroke: none; stroke-width: 1; stroke-dasharray: none; stroke-linecap: butt; stroke-linejoin: miter; stroke-miterlimit: 10; fill: rgb(32,143,232); fill-rule: nonzero; opacity: 1;" transform="  matrix(1 0 0 1 0 0) "/>
	<path d="M 63.075 45.063 c -0.512 0 -1.023 -0.195 -1.414 -0.586 L 45 27.816 L 28.339 44.477 c -0.78 0.781 -2.048 0.781 -2.828 0 c -0.781 -0.781 -0.781 -2.047 0 -2.828 l 18.075 -18.075 c 0.78 -0.781 2.047 -0.781 2.828 0 l 18.075 18.075 c 0.781 0.781 0.781 2.047 0 2.828 C 64.099 44.868 63.587 45.063 63.075 45.063 z" style="stroke: none; stroke-width: 1; stroke-dasharray: none; stroke-linecap: butt; stroke-linejoin: miter; stroke-miterlimit: 10; fill: rgb(255,255,255); fill-rule: nonzero; opacity: 1;" transform=" matrix(1 0 0 1 0 0) " stroke-linecap="round" />
	<path d="M 63.075 63.012 c -0.512 0 -1.023 -0.195 -1.414 -0.586 L 45 45.766 l -16.661 16.66 c -0.78 0.781 -2.047 0.781 -2.828 0 s -0.781 -2.047 0 -2.828 l 18.075 -18.075 c 0.781 -0.781 2.047 -0.781 2.828 0 l 18.075 18.075 c 0.781 0.781 0.781 2.047 0 2.828 C 64.099 62.816 63.587 63.012 63.075 63.012 z" style="stroke: none; stroke-width: 1; stroke-dasharray: none; stroke-linecap: butt; stroke-linejoin: miter; stroke-miterlimit: 10; fill: rgb(255,255,255); fill-rule: nonzero; opacity: 1;" transform=" matrix(1 0 0 1 0 0) " stroke-linecap="round" />
</g>
</svg>